<svg width="26" height="26" viewBox="0 0 26 26" fill="none" xmlns="http://www.w3.org/2000/svg">
<g opacity="0.396275">
<path d="M23.2143 0H2.78571C1.24721 0 0 1.24721 0 2.78571V23.2143C0 24.7528 1.24721 26 2.78571 26H10.7511V17.1606H7.09487V13H10.7511V9.82893C10.7511 6.22201 12.8984 4.22964 16.1873 4.22964C17.7624 4.22964 19.4095 4.51054 19.4095 4.51054V8.05071H17.5947C15.8066 8.05071 15.2489 9.16036 15.2489 10.2984V13H19.2406L18.6022 17.1606H15.2489V26H23.2143C24.7528 26 26 24.7528 26 23.2143V2.78571C26 1.24721 24.7528 0 23.2143 0V0Z" fill="black"/>
</g>
</svg>
