<svg width="28" height="28" viewBox="0 0 28 28" fill="none" xmlns="http://www.w3.org/2000/svg">
<g opacity="0.396275">
<path fill-rule="evenodd" clip-rule="evenodd" d="M27.9016 8.22693C27.7954 5.98393 27.2832 3.9971 25.6404 2.36015C24.0038 0.723195 22.0174 0.210867 19.7749 0.0984045C17.4637 -0.0328015 10.5363 -0.0328015 8.2251 0.0984045C5.98885 0.204619 4.00245 0.716948 2.35962 2.3539C0.716788 3.99085 0.21082 5.97769 0.0983826 8.22069C-0.0327942 10.5324 -0.0327942 17.4613 0.0983826 19.7731C0.204573 22.0161 0.716788 24.0029 2.35962 25.6399C4.00245 27.2768 5.9826 27.7891 8.2251 27.9016C10.5363 28.0328 17.4637 28.0328 19.7749 27.9016C22.0174 27.7954 24.0038 27.2831 25.6404 25.6399C27.277 24.0029 27.7892 22.0161 27.9016 19.7731C28.0328 17.4613 28.0328 10.5387 27.9016 8.22693ZM21.474 8.20194C22.3984 8.20194 23.148 7.45844 23.148 6.5275C23.148 5.60281 22.3984 4.85306 21.474 4.85306C20.5495 4.85306 19.7999 5.60281 19.7999 6.5275C19.7999 7.45219 20.5432 8.20194 21.474 8.20194ZM14.0031 6.82115C10.0303 6.82115 6.82588 10.0263 6.82588 14C6.82588 17.9737 10.0303 21.1788 14.0031 21.1788C17.9759 21.1788 21.1804 17.9737 21.1804 14C21.1804 10.0263 17.9759 6.82115 14.0031 6.82115ZM14.0031 18.6672C11.4358 18.6672 9.33698 16.5741 9.33698 14C9.33698 11.4259 11.4296 9.33281 14.0031 9.33281C16.5767 9.33281 18.6693 11.4259 18.6693 14C18.6693 16.5741 16.5704 18.6672 14.0031 18.6672ZM22.2548 24.9151C23.4853 24.4215 24.4286 23.4781 24.9158 22.2535C25.5426 20.6779 25.5078 17.2316 25.4851 14.9976C25.4814 14.627 25.478 14.2898 25.478 14C25.478 13.7102 25.4814 13.373 25.4851 13.0025C25.5078 10.7697 25.5426 7.32736 24.9158 5.74651C24.4223 4.51568 23.4791 3.57224 22.2548 3.0849C20.6746 2.46131 17.2124 2.49453 14.9795 2.51595C14.6172 2.51943 14.2874 2.52259 14.0031 2.52259C13.7133 2.52259 13.3763 2.51918 13.0059 2.51542C10.7735 2.4928 7.33197 2.45792 5.75148 3.0849C4.52091 3.57849 3.57769 4.52192 3.09046 5.74651C2.46701 7.327 2.50022 10.79 2.52164 13.0234C2.52511 13.3857 2.52828 13.7157 2.52828 14C2.52828 14.2898 2.52486 14.627 2.52111 14.9975C2.49849 17.2303 2.46362 20.6726 3.09046 22.2535C3.58394 23.4843 4.52716 24.4278 5.75148 24.9151C7.33161 25.5387 10.7939 25.5055 13.0268 25.484C13.389 25.4806 13.7189 25.4774 14.0031 25.4774C14.2929 25.4774 14.63 25.4808 15.0004 25.4846C17.2327 25.5072 20.6743 25.5421 22.2548 24.9151Z" fill="black"/>
</g>
</svg>
